# xmcd CD database file
#
# Track frame offsets:
#	150
#	15465
#	35432
#
# Disc length: 748 seconds
#
# Revision: 0
# Processed by: cddbd v1.5.1PL2 Copyright (c) Steve Scherf et al.
# Submitted via: CDex 1.51
#
DISCID=1702ea03
DTITLE=master*piece - 真夜中の扉の向こう
DYEAR=2005
DGENRE=Rock
TTITLE0=真夜中の扉の向こう
TTITLE1=君に触れたまま
TTITLE2=ここから
EXTD=YEAR: 2005
EXTT0=
EXTT1=
EXTT2=
PLAYORDER=
